<mxfile host="Electron" modified="2024-08-21T04:17:58.556Z" agent="Mozilla/5.0 (Windows NT 10.0; Win64; x64) AppleWebKit/537.36 (KHTML, like Gecko) draw.io/22.1.18 Chrome/120.0.6099.199 Electron/28.1.2 Safari/537.36" etag="NXkHLG7tZQxreEw9J0ON" version="22.1.18" type="device">
  <diagram id="tFx8NVUHpEqBDBRQr2UT" name="Page-1">
    <mxGraphModel dx="778" dy="478" grid="1" gridSize="10" guides="1" tooltips="1" connect="1" arrows="1" fold="1" page="1" pageScale="1" pageWidth="850" pageHeight="1100" math="0" shadow="0">
      <root>
        <mxCell id="0" />
        <mxCell id="1" parent="0" />
        <mxCell id="25S2dc2IU4X0ZwWvYwEf-1" value="Birth" style="rounded=0;whiteSpace=wrap;html=1;spacingBottom=0;spacingLeft=4;" vertex="1" parent="1">
          <mxGeometry x="170" y="80" width="80" height="40" as="geometry" />
        </mxCell>
        <mxCell id="25S2dc2IU4X0ZwWvYwEf-2" value="Accident" style="rounded=0;whiteSpace=wrap;html=1;spacingBottom=0;spacingLeft=4;" vertex="1" parent="1">
          <mxGeometry x="530" y="130" width="80" height="40" as="geometry" />
        </mxCell>
        <mxCell id="25S2dc2IU4X0ZwWvYwEf-3" value="Death" style="rounded=0;whiteSpace=wrap;html=1;spacingBottom=0;spacingLeft=4;" vertex="1" parent="1">
          <mxGeometry x="170" y="380" width="80" height="40" as="geometry" />
        </mxCell>
        <mxCell id="25S2dc2IU4X0ZwWvYwEf-4" value="Education/&lt;br&gt;Service Enrollments" style="rounded=0;whiteSpace=wrap;html=1;spacingBottom=0;spacingLeft=4;" vertex="1" parent="1">
          <mxGeometry x="170" y="180" width="80" height="40" as="geometry" />
        </mxCell>
        <mxCell id="25S2dc2IU4X0ZwWvYwEf-5" value="Graduations" style="rounded=0;whiteSpace=wrap;html=1;spacingBottom=0;spacingLeft=4;" vertex="1" parent="1">
          <mxGeometry x="710" y="180" width="80" height="40" as="geometry" />
        </mxCell>
        <mxCell id="25S2dc2IU4X0ZwWvYwEf-8" value="Marriage" style="rounded=0;whiteSpace=wrap;html=1;spacingBottom=0;spacingLeft=4;" vertex="1" parent="1">
          <mxGeometry x="260" y="280" width="80" height="40" as="geometry" />
        </mxCell>
        <mxCell id="25S2dc2IU4X0ZwWvYwEf-9" value="Divorce" style="rounded=0;whiteSpace=wrap;html=1;spacingBottom=0;spacingLeft=4;" vertex="1" parent="1">
          <mxGeometry x="350" y="280" width="80" height="40" as="geometry" />
        </mxCell>
        <mxCell id="25S2dc2IU4X0ZwWvYwEf-10" value="Illness" style="rounded=0;whiteSpace=wrap;html=1;spacingBottom=0;spacingLeft=4;" vertex="1" parent="1">
          <mxGeometry x="350" y="130" width="80" height="40" as="geometry" />
        </mxCell>
        <mxCell id="25S2dc2IU4X0ZwWvYwEf-11" value="Rehabilitations" style="rounded=0;whiteSpace=wrap;html=1;spacingBottom=0;spacingLeft=4;" vertex="1" parent="1">
          <mxGeometry x="620" y="130" width="80" height="40" as="geometry" />
        </mxCell>
        <mxCell id="25S2dc2IU4X0ZwWvYwEf-12" value="Arrests" style="rounded=0;whiteSpace=wrap;html=1;spacingBottom=0;spacingLeft=4;" vertex="1" parent="1">
          <mxGeometry x="440" y="230" width="80" height="40" as="geometry" />
        </mxCell>
        <mxCell id="25S2dc2IU4X0ZwWvYwEf-13" value="Releases" style="rounded=0;whiteSpace=wrap;html=1;spacingBottom=0;spacingLeft=4;" vertex="1" parent="1">
          <mxGeometry x="530" y="230" width="80" height="40" as="geometry" />
        </mxCell>
        <mxCell id="25S2dc2IU4X0ZwWvYwEf-14" value="Medical Checkups" style="rounded=0;whiteSpace=wrap;html=1;spacingBottom=0;spacingLeft=4;" vertex="1" parent="1">
          <mxGeometry x="170" y="130" width="80" height="40" as="geometry" />
        </mxCell>
        <mxCell id="25S2dc2IU4X0ZwWvYwEf-15" value="Vacinations" style="rounded=0;whiteSpace=wrap;html=1;spacingBottom=0;spacingLeft=4;" vertex="1" parent="1">
          <mxGeometry x="260" y="130" width="80" height="40" as="geometry" />
        </mxCell>
        <mxCell id="25S2dc2IU4X0ZwWvYwEf-16" value="Recuperation" style="rounded=0;whiteSpace=wrap;html=1;spacingBottom=0;spacingLeft=4;" vertex="1" parent="1">
          <mxGeometry x="440" y="130" width="80" height="40" as="geometry" />
        </mxCell>
        <mxCell id="25S2dc2IU4X0ZwWvYwEf-19" value="Awards" style="rounded=0;whiteSpace=wrap;html=1;spacingBottom=0;spacingLeft=4;" vertex="1" parent="1">
          <mxGeometry x="530" y="180" width="80" height="40" as="geometry" />
        </mxCell>
        <mxCell id="25S2dc2IU4X0ZwWvYwEf-20" value="Suspensions" style="rounded=0;whiteSpace=wrap;html=1;spacingBottom=0;spacingLeft=4;" vertex="1" parent="1">
          <mxGeometry x="440" y="180" width="80" height="40" as="geometry" />
        </mxCell>
        <mxCell id="25S2dc2IU4X0ZwWvYwEf-21" value="Expulsions" style="rounded=0;whiteSpace=wrap;html=1;spacingBottom=0;spacingLeft=4;" vertex="1" parent="1">
          <mxGeometry x="620" y="180" width="80" height="40" as="geometry" />
        </mxCell>
        <mxCell id="25S2dc2IU4X0ZwWvYwEf-22" value="Attendances" style="rounded=0;whiteSpace=wrap;html=1;spacingBottom=0;spacingLeft=4;" vertex="1" parent="1">
          <mxGeometry x="260" y="180" width="80" height="40" as="geometry" />
        </mxCell>
        <mxCell id="25S2dc2IU4X0ZwWvYwEf-23" value="Excuses" style="rounded=0;whiteSpace=wrap;html=1;spacingBottom=0;spacingLeft=4;" vertex="1" parent="1">
          <mxGeometry x="350" y="180" width="80" height="40" as="geometry" />
        </mxCell>
        <mxCell id="25S2dc2IU4X0ZwWvYwEf-24" value="Infringements" style="rounded=0;whiteSpace=wrap;html=1;spacingBottom=0;spacingLeft=4;" vertex="1" parent="1">
          <mxGeometry x="350" y="230" width="80" height="40" as="geometry" />
        </mxCell>
        <mxCell id="25S2dc2IU4X0ZwWvYwEf-25" value="Encounters" style="rounded=0;whiteSpace=wrap;html=1;spacingBottom=0;spacingLeft=4;" vertex="1" parent="1">
          <mxGeometry x="170" y="280" width="80" height="40" as="geometry" />
        </mxCell>
        <mxCell id="25S2dc2IU4X0ZwWvYwEf-26" value="Assistance" style="rounded=0;whiteSpace=wrap;html=1;spacingBottom=0;spacingLeft=4;" vertex="1" parent="1">
          <mxGeometry x="260" y="230" width="80" height="40" as="geometry" />
        </mxCell>
        <mxCell id="25S2dc2IU4X0ZwWvYwEf-27" value="Judgements" style="rounded=0;whiteSpace=wrap;html=1;spacingBottom=0;spacingLeft=4;" vertex="1" parent="1">
          <mxGeometry x="620" y="230" width="80" height="40" as="geometry" />
        </mxCell>
        <mxCell id="25S2dc2IU4X0ZwWvYwEf-28" value="Imprisonments" style="rounded=0;whiteSpace=wrap;html=1;spacingBottom=0;spacingLeft=4;" vertex="1" parent="1">
          <mxGeometry x="710" y="230" width="80" height="40" as="geometry" />
        </mxCell>
        <mxCell id="25S2dc2IU4X0ZwWvYwEf-29" value="Actions" style="rounded=0;whiteSpace=wrap;html=1;spacingBottom=0;spacingLeft=4;" vertex="1" parent="1">
          <mxGeometry x="170" y="230" width="80" height="40" as="geometry" />
        </mxCell>
        <mxCell id="25S2dc2IU4X0ZwWvYwEf-30" value="Transactions" style="rounded=0;whiteSpace=wrap;html=1;spacingBottom=0;spacingLeft=4;" vertex="1" parent="1">
          <mxGeometry x="170" y="330" width="80" height="40" as="geometry" />
        </mxCell>
        <mxCell id="25S2dc2IU4X0ZwWvYwEf-31" value="Purchases" style="rounded=0;whiteSpace=wrap;html=1;spacingBottom=0;spacingLeft=4;" vertex="1" parent="1">
          <mxGeometry x="260" y="330" width="80" height="40" as="geometry" />
        </mxCell>
        <mxCell id="25S2dc2IU4X0ZwWvYwEf-32" value="Subscriptions" style="rounded=0;whiteSpace=wrap;html=1;spacingBottom=0;spacingLeft=4;" vertex="1" parent="1">
          <mxGeometry x="350" y="330" width="80" height="40" as="geometry" />
        </mxCell>
        <mxCell id="25S2dc2IU4X0ZwWvYwEf-33" value="Refunds" style="rounded=0;whiteSpace=wrap;html=1;spacingBottom=0;spacingLeft=4;" vertex="1" parent="1">
          <mxGeometry x="440" y="330" width="80" height="40" as="geometry" />
        </mxCell>
      </root>
    </mxGraphModel>
  </diagram>
</mxfile>
